<?xml version="1.0" encoding="UTF-8" standalone="no"?>
<svg xmlns="http://www.w3.org/2000/svg" version="1.1" width="260.0" height="81.0" viewBox="0 0 260.0 81.0">
  <style>
    :root {
      --px-bg: #ffffff;
      --px-grid: #888888;
      --px-ink: #000000;
      --px-text: #000000;
    }
    @media (prefers-color-scheme: dark) {
      :root {
        --px-bg: #111111;
        --px-grid: #888888;
        --px-ink: #e6e6e6;
        --px-text: #e6e6e6;
      }
    }
  </style>
  <g transform="translate(0.5,0.5)">
    <g id="bits" fill="var(--px-ink)" stroke="none">
      <rect x="0" y="0" width="16" height="16"/>
      <rect x="16" y="0" width="16" height="16"/>
      <rect x="32" y="0" width="16" height="16"/>
      <rect x="48" y="0" width="16" height="16"/>
      <rect x="0" y="16" width="16" height="16"/>
      <rect x="48" y="16" width="16" height="16"/>
      <rect x="0" y="32" width="16" height="16"/>
      <rect x="16" y="32" width="16" height="16"/>
      <rect x="32" y="32" width="16" height="16"/>
      <rect x="48" y="32" width="16" height="16"/>
      <rect x="0" y="48" width="16" height="16"/>
      <rect x="48" y="48" width="16" height="16"/>
      <rect x="0" y="64" width="16" height="16"/>
      <rect x="16" y="64" width="16" height="16"/>
      <rect x="32" y="64" width="16" height="16"/>
      <rect x="48" y="64" width="16" height="16"/>
    </g>
    <g id="grid" fill="none" stroke="var(--px-grid)" stroke-width="1.0" shape-rendering="crispEdges">
      <line x1="0" y1="0" x2="0" y2="80"/>
      <line x1="16" y1="0" x2="16" y2="80"/>
      <line x1="32" y1="0" x2="32" y2="80"/>
      <line x1="48" y1="0" x2="48" y2="80"/>
      <line x1="64" y1="0" x2="64" y2="80"/>
      <line x1="80" y1="0" x2="80" y2="80"/>
      <line x1="96" y1="0" x2="96" y2="80"/>
      <line x1="112" y1="0" x2="112" y2="80"/>
      <line x1="128" y1="0" x2="128" y2="80"/>
      <line x1="0" y1="0" x2="128" y2="0"/>
      <line x1="0" y1="16" x2="128" y2="16"/>
      <line x1="0" y1="32" x2="128" y2="32"/>
      <line x1="0" y1="48" x2="128" y2="48"/>
      <line x1="0" y1="64" x2="128" y2="64"/>
      <line x1="0" y1="80" x2="128" y2="80"/>
    </g>
    <g id="outer-border" fill="none" stroke="var(--px-grid)" stroke-width="1.0" shape-rendering="crispEdges">
      <rect x="0" y="0" width="128" height="80"/>
    </g>
    <g id="labels" fill="var(--px-text)" stroke="none" font-family="monospace" font-size="12">
      <text x="138" y="8.0" dominant-baseline="middle">F0</text>
      <text x="138" y="24.0" dominant-baseline="middle">90</text>
      <text x="138" y="40.0" dominant-baseline="middle">F0</text>
      <text x="138" y="56.0" dominant-baseline="middle">90</text>
      <text x="138" y="72.0" dominant-baseline="middle">F0</text>
    </g>
  </g>
</svg>
