<?xml version="1.0" encoding="UTF-8" standalone="no"?>
<svg xmlns="http://www.w3.org/2000/svg" version="1.1" width="657.0" height="97.0" viewBox="0 0 657.0 97.0">
  <style>
    :root {
      --px-bg: #ffffff;
      --px-grid: #888888;
      --px-ink: #000000;
    }
    @media (prefers-color-scheme: dark) {
      :root {
        --px-bg: #111111;
        --px-grid: #888888;
        --px-ink: #e6e6e6;
      }
    }
  </style>
  <g transform="translate(0.5,0.5)">
    <g id="pixels" fill="var(--px-ink)" stroke="none">
      <rect x="24" y="8" width="8" height="8"/>
      <rect x="32" y="8" width="8" height="8"/>
      <rect x="40" y="8" width="8" height="8"/>
      <rect x="48" y="8" width="8" height="8"/>
      <rect x="96" y="8" width="8" height="8"/>
      <rect x="104" y="8" width="8" height="8"/>
      <rect x="152" y="8" width="8" height="8"/>
      <rect x="160" y="8" width="8" height="8"/>
      <rect x="168" y="8" width="8" height="8"/>
      <rect x="176" y="8" width="8" height="8"/>
      <rect x="184" y="8" width="8" height="8"/>
      <rect x="216" y="8" width="8" height="8"/>
      <rect x="224" y="8" width="8" height="8"/>
      <rect x="232" y="8" width="8" height="8"/>
      <rect x="240" y="8" width="8" height="8"/>
      <rect x="304" y="8" width="8" height="8"/>
      <rect x="312" y="8" width="8" height="8"/>
      <rect x="328" y="8" width="8" height="8"/>
      <rect x="336" y="8" width="8" height="8"/>
      <rect x="344" y="8" width="8" height="8"/>
      <rect x="352" y="8" width="8" height="8"/>
      <rect x="360" y="8" width="8" height="8"/>
      <rect x="368" y="8" width="8" height="8"/>
      <rect x="376" y="8" width="8" height="8"/>
      <rect x="384" y="8" width="8" height="8"/>
      <rect x="408" y="8" width="8" height="8"/>
      <rect x="416" y="8" width="8" height="8"/>
      <rect x="424" y="8" width="8" height="8"/>
      <rect x="432" y="8" width="8" height="8"/>
      <rect x="440" y="8" width="8" height="8"/>
      <rect x="456" y="8" width="8" height="8"/>
      <rect x="464" y="8" width="8" height="8"/>
      <rect x="472" y="8" width="8" height="8"/>
      <rect x="480" y="8" width="8" height="8"/>
      <rect x="488" y="8" width="8" height="8"/>
      <rect x="496" y="8" width="8" height="8"/>
      <rect x="504" y="8" width="8" height="8"/>
      <rect x="512" y="8" width="8" height="8"/>
      <rect x="536" y="8" width="8" height="8"/>
      <rect x="544" y="8" width="8" height="8"/>
      <rect x="552" y="8" width="8" height="8"/>
      <rect x="560" y="8" width="8" height="8"/>
      <rect x="600" y="8" width="8" height="8"/>
      <rect x="608" y="8" width="8" height="8"/>
      <rect x="616" y="8" width="8" height="8"/>
      <rect x="624" y="8" width="8" height="8"/>
      <rect x="16" y="16" width="8" height="8"/>
      <rect x="24" y="16" width="8" height="8"/>
      <rect x="32" y="16" width="8" height="8"/>
      <rect x="40" y="16" width="8" height="8"/>
      <rect x="48" y="16" width="8" height="8"/>
      <rect x="56" y="16" width="8" height="8"/>
      <rect x="88" y="16" width="8" height="8"/>
      <rect x="96" y="16" width="8" height="8"/>
      <rect x="104" y="16" width="8" height="8"/>
      <rect x="144" y="16" width="8" height="8"/>
      <rect x="152" y="16" width="8" height="8"/>
      <rect x="160" y="16" width="8" height="8"/>
      <rect x="168" y="16" width="8" height="8"/>
      <rect x="176" y="16" width="8" height="8"/>
      <rect x="184" y="16" width="8" height="8"/>
      <rect x="192" y="16" width="8" height="8"/>
      <rect x="208" y="16" width="8" height="8"/>
      <rect x="216" y="16" width="8" height="8"/>
      <rect x="224" y="16" width="8" height="8"/>
      <rect x="232" y="16" width="8" height="8"/>
      <rect x="240" y="16" width="8" height="8"/>
      <rect x="248" y="16" width="8" height="8"/>
      <rect x="296" y="16" width="8" height="8"/>
      <rect x="304" y="16" width="8" height="8"/>
      <rect x="312" y="16" width="8" height="8"/>
      <rect x="328" y="16" width="8" height="8"/>
      <rect x="336" y="16" width="8" height="8"/>
      <rect x="344" y="16" width="8" height="8"/>
      <rect x="352" y="16" width="8" height="8"/>
      <rect x="360" y="16" width="8" height="8"/>
      <rect x="368" y="16" width="8" height="8"/>
      <rect x="376" y="16" width="8" height="8"/>
      <rect x="384" y="16" width="8" height="8"/>
      <rect x="400" y="16" width="8" height="8"/>
      <rect x="408" y="16" width="8" height="8"/>
      <rect x="416" y="16" width="8" height="8"/>
      <rect x="424" y="16" width="8" height="8"/>
      <rect x="432" y="16" width="8" height="8"/>
      <rect x="456" y="16" width="8" height="8"/>
      <rect x="464" y="16" width="8" height="8"/>
      <rect x="472" y="16" width="8" height="8"/>
      <rect x="480" y="16" width="8" height="8"/>
      <rect x="488" y="16" width="8" height="8"/>
      <rect x="496" y="16" width="8" height="8"/>
      <rect x="504" y="16" width="8" height="8"/>
      <rect x="512" y="16" width="8" height="8"/>
      <rect x="528" y="16" width="8" height="8"/>
      <rect x="536" y="16" width="8" height="8"/>
      <rect x="544" y="16" width="8" height="8"/>
      <rect x="552" y="16" width="8" height="8"/>
      <rect x="560" y="16" width="8" height="8"/>
      <rect x="568" y="16" width="8" height="8"/>
      <rect x="592" y="16" width="8" height="8"/>
      <rect x="600" y="16" width="8" height="8"/>
      <rect x="608" y="16" width="8" height="8"/>
      <rect x="616" y="16" width="8" height="8"/>
      <rect x="624" y="16" width="8" height="8"/>
      <rect x="632" y="16" width="8" height="8"/>
      <rect x="8" y="24" width="8" height="8"/>
      <rect x="16" y="24" width="8" height="8"/>
      <rect x="24" y="24" width="8" height="8"/>
      <rect x="32" y="24" width="8" height="8"/>
      <rect x="40" y="24" width="8" height="8"/>
      <rect x="48" y="24" width="8" height="8"/>
      <rect x="56" y="24" width="8" height="8"/>
      <rect x="64" y="24" width="8" height="8"/>
      <rect x="80" y="24" width="8" height="8"/>
      <rect x="96" y="24" width="8" height="8"/>
      <rect x="104" y="24" width="8" height="8"/>
      <rect x="136" y="24" width="8" height="8"/>
      <rect x="144" y="24" width="8" height="8"/>
      <rect x="184" y="24" width="8" height="8"/>
      <rect x="192" y="24" width="8" height="8"/>
      <rect x="200" y="24" width="8" height="8"/>
      <rect x="208" y="24" width="8" height="8"/>
      <rect x="248" y="24" width="8" height="8"/>
      <rect x="256" y="24" width="8" height="8"/>
      <rect x="288" y="24" width="8" height="8"/>
      <rect x="296" y="24" width="8" height="8"/>
      <rect x="304" y="24" width="8" height="8"/>
      <rect x="312" y="24" width="8" height="8"/>
      <rect x="328" y="24" width="8" height="8"/>
      <rect x="336" y="24" width="8" height="8"/>
      <rect x="392" y="24" width="8" height="8"/>
      <rect x="400" y="24" width="8" height="8"/>
      <rect x="408" y="24" width="8" height="8"/>
      <rect x="504" y="24" width="8" height="8"/>
      <rect x="512" y="24" width="8" height="8"/>
      <rect x="520" y="24" width="8" height="8"/>
      <rect x="528" y="24" width="8" height="8"/>
      <rect x="568" y="24" width="8" height="8"/>
      <rect x="576" y="24" width="8" height="8"/>
      <rect x="584" y="24" width="8" height="8"/>
      <rect x="592" y="24" width="8" height="8"/>
      <rect x="632" y="24" width="8" height="8"/>
      <rect x="640" y="24" width="8" height="8"/>
      <rect x="8" y="32" width="8" height="8"/>
      <rect x="16" y="32" width="8" height="8"/>
      <rect x="56" y="32" width="8" height="8"/>
      <rect x="64" y="32" width="8" height="8"/>
      <rect x="96" y="32" width="8" height="8"/>
      <rect x="104" y="32" width="8" height="8"/>
      <rect x="176" y="32" width="8" height="8"/>
      <rect x="184" y="32" width="8" height="8"/>
      <rect x="248" y="32" width="8" height="8"/>
      <rect x="256" y="32" width="8" height="8"/>
      <rect x="280" y="32" width="8" height="8"/>
      <rect x="288" y="32" width="8" height="8"/>
      <rect x="304" y="32" width="8" height="8"/>
      <rect x="312" y="32" width="8" height="8"/>
      <rect x="328" y="32" width="8" height="8"/>
      <rect x="336" y="32" width="8" height="8"/>
      <rect x="392" y="32" width="8" height="8"/>
      <rect x="400" y="32" width="8" height="8"/>
      <rect x="496" y="32" width="8" height="8"/>
      <rect x="504" y="32" width="8" height="8"/>
      <rect x="520" y="32" width="8" height="8"/>
      <rect x="528" y="32" width="8" height="8"/>
      <rect x="568" y="32" width="8" height="8"/>
      <rect x="576" y="32" width="8" height="8"/>
      <rect x="584" y="32" width="8" height="8"/>
      <rect x="592" y="32" width="8" height="8"/>
      <rect x="632" y="32" width="8" height="8"/>
      <rect x="640" y="32" width="8" height="8"/>
      <rect x="8" y="40" width="8" height="8"/>
      <rect x="16" y="40" width="8" height="8"/>
      <rect x="56" y="40" width="8" height="8"/>
      <rect x="64" y="40" width="8" height="8"/>
      <rect x="96" y="40" width="8" height="8"/>
      <rect x="104" y="40" width="8" height="8"/>
      <rect x="168" y="40" width="8" height="8"/>
      <rect x="176" y="40" width="8" height="8"/>
      <rect x="232" y="40" width="8" height="8"/>
      <rect x="240" y="40" width="8" height="8"/>
      <rect x="248" y="40" width="8" height="8"/>
      <rect x="272" y="40" width="8" height="8"/>
      <rect x="280" y="40" width="8" height="8"/>
      <rect x="304" y="40" width="8" height="8"/>
      <rect x="312" y="40" width="8" height="8"/>
      <rect x="328" y="40" width="8" height="8"/>
      <rect x="336" y="40" width="8" height="8"/>
      <rect x="344" y="40" width="8" height="8"/>
      <rect x="352" y="40" width="8" height="8"/>
      <rect x="360" y="40" width="8" height="8"/>
      <rect x="368" y="40" width="8" height="8"/>
      <rect x="392" y="40" width="8" height="8"/>
      <rect x="400" y="40" width="8" height="8"/>
      <rect x="408" y="40" width="8" height="8"/>
      <rect x="416" y="40" width="8" height="8"/>
      <rect x="424" y="40" width="8" height="8"/>
      <rect x="432" y="40" width="8" height="8"/>
      <rect x="488" y="40" width="8" height="8"/>
      <rect x="496" y="40" width="8" height="8"/>
      <rect x="528" y="40" width="8" height="8"/>
      <rect x="536" y="40" width="8" height="8"/>
      <rect x="544" y="40" width="8" height="8"/>
      <rect x="552" y="40" width="8" height="8"/>
      <rect x="560" y="40" width="8" height="8"/>
      <rect x="568" y="40" width="8" height="8"/>
      <rect x="592" y="40" width="8" height="8"/>
      <rect x="600" y="40" width="8" height="8"/>
      <rect x="608" y="40" width="8" height="8"/>
      <rect x="616" y="40" width="8" height="8"/>
      <rect x="624" y="40" width="8" height="8"/>
      <rect x="632" y="40" width="8" height="8"/>
      <rect x="640" y="40" width="8" height="8"/>
      <rect x="8" y="48" width="8" height="8"/>
      <rect x="16" y="48" width="8" height="8"/>
      <rect x="56" y="48" width="8" height="8"/>
      <rect x="64" y="48" width="8" height="8"/>
      <rect x="96" y="48" width="8" height="8"/>
      <rect x="104" y="48" width="8" height="8"/>
      <rect x="160" y="48" width="8" height="8"/>
      <rect x="168" y="48" width="8" height="8"/>
      <rect x="232" y="48" width="8" height="8"/>
      <rect x="240" y="48" width="8" height="8"/>
      <rect x="248" y="48" width="8" height="8"/>
      <rect x="264" y="48" width="8" height="8"/>
      <rect x="272" y="48" width="8" height="8"/>
      <rect x="304" y="48" width="8" height="8"/>
      <rect x="312" y="48" width="8" height="8"/>
      <rect x="328" y="48" width="8" height="8"/>
      <rect x="336" y="48" width="8" height="8"/>
      <rect x="344" y="48" width="8" height="8"/>
      <rect x="352" y="48" width="8" height="8"/>
      <rect x="360" y="48" width="8" height="8"/>
      <rect x="368" y="48" width="8" height="8"/>
      <rect x="376" y="48" width="8" height="8"/>
      <rect x="392" y="48" width="8" height="8"/>
      <rect x="400" y="48" width="8" height="8"/>
      <rect x="408" y="48" width="8" height="8"/>
      <rect x="416" y="48" width="8" height="8"/>
      <rect x="424" y="48" width="8" height="8"/>
      <rect x="432" y="48" width="8" height="8"/>
      <rect x="440" y="48" width="8" height="8"/>
      <rect x="480" y="48" width="8" height="8"/>
      <rect x="488" y="48" width="8" height="8"/>
      <rect x="528" y="48" width="8" height="8"/>
      <rect x="536" y="48" width="8" height="8"/>
      <rect x="544" y="48" width="8" height="8"/>
      <rect x="552" y="48" width="8" height="8"/>
      <rect x="560" y="48" width="8" height="8"/>
      <rect x="568" y="48" width="8" height="8"/>
      <rect x="600" y="48" width="8" height="8"/>
      <rect x="608" y="48" width="8" height="8"/>
      <rect x="616" y="48" width="8" height="8"/>
      <rect x="624" y="48" width="8" height="8"/>
      <rect x="632" y="48" width="8" height="8"/>
      <rect x="640" y="48" width="8" height="8"/>
      <rect x="8" y="56" width="8" height="8"/>
      <rect x="16" y="56" width="8" height="8"/>
      <rect x="56" y="56" width="8" height="8"/>
      <rect x="64" y="56" width="8" height="8"/>
      <rect x="96" y="56" width="8" height="8"/>
      <rect x="104" y="56" width="8" height="8"/>
      <rect x="152" y="56" width="8" height="8"/>
      <rect x="160" y="56" width="8" height="8"/>
      <rect x="248" y="56" width="8" height="8"/>
      <rect x="256" y="56" width="8" height="8"/>
      <rect x="264" y="56" width="8" height="8"/>
      <rect x="272" y="56" width="8" height="8"/>
      <rect x="280" y="56" width="8" height="8"/>
      <rect x="288" y="56" width="8" height="8"/>
      <rect x="296" y="56" width="8" height="8"/>
      <rect x="304" y="56" width="8" height="8"/>
      <rect x="312" y="56" width="8" height="8"/>
      <rect x="320" y="56" width="8" height="8"/>
      <rect x="376" y="56" width="8" height="8"/>
      <rect x="384" y="56" width="8" height="8"/>
      <rect x="392" y="56" width="8" height="8"/>
      <rect x="400" y="56" width="8" height="8"/>
      <rect x="440" y="56" width="8" height="8"/>
      <rect x="448" y="56" width="8" height="8"/>
      <rect x="472" y="56" width="8" height="8"/>
      <rect x="480" y="56" width="8" height="8"/>
      <rect x="520" y="56" width="8" height="8"/>
      <rect x="528" y="56" width="8" height="8"/>
      <rect x="568" y="56" width="8" height="8"/>
      <rect x="576" y="56" width="8" height="8"/>
      <rect x="632" y="56" width="8" height="8"/>
      <rect x="640" y="56" width="8" height="8"/>
      <rect x="8" y="64" width="8" height="8"/>
      <rect x="16" y="64" width="8" height="8"/>
      <rect x="24" y="64" width="8" height="8"/>
      <rect x="32" y="64" width="8" height="8"/>
      <rect x="40" y="64" width="8" height="8"/>
      <rect x="48" y="64" width="8" height="8"/>
      <rect x="56" y="64" width="8" height="8"/>
      <rect x="64" y="64" width="8" height="8"/>
      <rect x="96" y="64" width="8" height="8"/>
      <rect x="104" y="64" width="8" height="8"/>
      <rect x="144" y="64" width="8" height="8"/>
      <rect x="152" y="64" width="8" height="8"/>
      <rect x="200" y="64" width="8" height="8"/>
      <rect x="208" y="64" width="8" height="8"/>
      <rect x="248" y="64" width="8" height="8"/>
      <rect x="256" y="64" width="8" height="8"/>
      <rect x="264" y="64" width="8" height="8"/>
      <rect x="272" y="64" width="8" height="8"/>
      <rect x="280" y="64" width="8" height="8"/>
      <rect x="288" y="64" width="8" height="8"/>
      <rect x="296" y="64" width="8" height="8"/>
      <rect x="304" y="64" width="8" height="8"/>
      <rect x="312" y="64" width="8" height="8"/>
      <rect x="320" y="64" width="8" height="8"/>
      <rect x="328" y="64" width="8" height="8"/>
      <rect x="336" y="64" width="8" height="8"/>
      <rect x="376" y="64" width="8" height="8"/>
      <rect x="384" y="64" width="8" height="8"/>
      <rect x="392" y="64" width="8" height="8"/>
      <rect x="400" y="64" width="8" height="8"/>
      <rect x="440" y="64" width="8" height="8"/>
      <rect x="448" y="64" width="8" height="8"/>
      <rect x="464" y="64" width="8" height="8"/>
      <rect x="472" y="64" width="8" height="8"/>
      <rect x="520" y="64" width="8" height="8"/>
      <rect x="528" y="64" width="8" height="8"/>
      <rect x="568" y="64" width="8" height="8"/>
      <rect x="576" y="64" width="8" height="8"/>
      <rect x="632" y="64" width="8" height="8"/>
      <rect x="640" y="64" width="8" height="8"/>
      <rect x="16" y="72" width="8" height="8"/>
      <rect x="24" y="72" width="8" height="8"/>
      <rect x="32" y="72" width="8" height="8"/>
      <rect x="40" y="72" width="8" height="8"/>
      <rect x="48" y="72" width="8" height="8"/>
      <rect x="56" y="72" width="8" height="8"/>
      <rect x="96" y="72" width="8" height="8"/>
      <rect x="104" y="72" width="8" height="8"/>
      <rect x="136" y="72" width="8" height="8"/>
      <rect x="144" y="72" width="8" height="8"/>
      <rect x="152" y="72" width="8" height="8"/>
      <rect x="160" y="72" width="8" height="8"/>
      <rect x="168" y="72" width="8" height="8"/>
      <rect x="176" y="72" width="8" height="8"/>
      <rect x="184" y="72" width="8" height="8"/>
      <rect x="192" y="72" width="8" height="8"/>
      <rect x="208" y="72" width="8" height="8"/>
      <rect x="216" y="72" width="8" height="8"/>
      <rect x="224" y="72" width="8" height="8"/>
      <rect x="232" y="72" width="8" height="8"/>
      <rect x="240" y="72" width="8" height="8"/>
      <rect x="248" y="72" width="8" height="8"/>
      <rect x="304" y="72" width="8" height="8"/>
      <rect x="312" y="72" width="8" height="8"/>
      <rect x="336" y="72" width="8" height="8"/>
      <rect x="344" y="72" width="8" height="8"/>
      <rect x="352" y="72" width="8" height="8"/>
      <rect x="360" y="72" width="8" height="8"/>
      <rect x="368" y="72" width="8" height="8"/>
      <rect x="376" y="72" width="8" height="8"/>
      <rect x="400" y="72" width="8" height="8"/>
      <rect x="408" y="72" width="8" height="8"/>
      <rect x="416" y="72" width="8" height="8"/>
      <rect x="424" y="72" width="8" height="8"/>
      <rect x="432" y="72" width="8" height="8"/>
      <rect x="440" y="72" width="8" height="8"/>
      <rect x="464" y="72" width="8" height="8"/>
      <rect x="472" y="72" width="8" height="8"/>
      <rect x="528" y="72" width="8" height="8"/>
      <rect x="536" y="72" width="8" height="8"/>
      <rect x="544" y="72" width="8" height="8"/>
      <rect x="552" y="72" width="8" height="8"/>
      <rect x="560" y="72" width="8" height="8"/>
      <rect x="568" y="72" width="8" height="8"/>
      <rect x="600" y="72" width="8" height="8"/>
      <rect x="608" y="72" width="8" height="8"/>
      <rect x="616" y="72" width="8" height="8"/>
      <rect x="624" y="72" width="8" height="8"/>
      <rect x="632" y="72" width="8" height="8"/>
      <rect x="24" y="80" width="8" height="8"/>
      <rect x="32" y="80" width="8" height="8"/>
      <rect x="40" y="80" width="8" height="8"/>
      <rect x="48" y="80" width="8" height="8"/>
      <rect x="88" y="80" width="8" height="8"/>
      <rect x="96" y="80" width="8" height="8"/>
      <rect x="104" y="80" width="8" height="8"/>
      <rect x="112" y="80" width="8" height="8"/>
      <rect x="136" y="80" width="8" height="8"/>
      <rect x="144" y="80" width="8" height="8"/>
      <rect x="152" y="80" width="8" height="8"/>
      <rect x="160" y="80" width="8" height="8"/>
      <rect x="168" y="80" width="8" height="8"/>
      <rect x="176" y="80" width="8" height="8"/>
      <rect x="184" y="80" width="8" height="8"/>
      <rect x="192" y="80" width="8" height="8"/>
      <rect x="216" y="80" width="8" height="8"/>
      <rect x="224" y="80" width="8" height="8"/>
      <rect x="232" y="80" width="8" height="8"/>
      <rect x="240" y="80" width="8" height="8"/>
      <rect x="304" y="80" width="8" height="8"/>
      <rect x="312" y="80" width="8" height="8"/>
      <rect x="344" y="80" width="8" height="8"/>
      <rect x="352" y="80" width="8" height="8"/>
      <rect x="360" y="80" width="8" height="8"/>
      <rect x="368" y="80" width="8" height="8"/>
      <rect x="408" y="80" width="8" height="8"/>
      <rect x="416" y="80" width="8" height="8"/>
      <rect x="424" y="80" width="8" height="8"/>
      <rect x="432" y="80" width="8" height="8"/>
      <rect x="464" y="80" width="8" height="8"/>
      <rect x="472" y="80" width="8" height="8"/>
      <rect x="536" y="80" width="8" height="8"/>
      <rect x="544" y="80" width="8" height="8"/>
      <rect x="552" y="80" width="8" height="8"/>
      <rect x="560" y="80" width="8" height="8"/>
      <rect x="592" y="80" width="8" height="8"/>
      <rect x="600" y="80" width="8" height="8"/>
      <rect x="608" y="80" width="8" height="8"/>
      <rect x="616" y="80" width="8" height="8"/>
      <rect x="624" y="80" width="8" height="8"/>
    </g>
    <g id="grid" fill="none" stroke="var(--px-grid)" stroke-width="1.0" shape-rendering="crispEdges">
      <line x1="0" y1="0" x2="0" y2="96"/>
      <line x1="8" y1="0" x2="8" y2="96"/>
      <line x1="16" y1="0" x2="16" y2="96"/>
      <line x1="24" y1="0" x2="24" y2="96"/>
      <line x1="32" y1="0" x2="32" y2="96"/>
      <line x1="40" y1="0" x2="40" y2="96"/>
      <line x1="48" y1="0" x2="48" y2="96"/>
      <line x1="56" y1="0" x2="56" y2="96"/>
      <line x1="64" y1="0" x2="64" y2="96"/>
      <line x1="72" y1="0" x2="72" y2="96"/>
      <line x1="80" y1="0" x2="80" y2="96"/>
      <line x1="88" y1="0" x2="88" y2="96"/>
      <line x1="96" y1="0" x2="96" y2="96"/>
      <line x1="104" y1="0" x2="104" y2="96"/>
      <line x1="112" y1="0" x2="112" y2="96"/>
      <line x1="120" y1="0" x2="120" y2="96"/>
      <line x1="128" y1="0" x2="128" y2="96"/>
      <line x1="136" y1="0" x2="136" y2="96"/>
      <line x1="144" y1="0" x2="144" y2="96"/>
      <line x1="152" y1="0" x2="152" y2="96"/>
      <line x1="160" y1="0" x2="160" y2="96"/>
      <line x1="168" y1="0" x2="168" y2="96"/>
      <line x1="176" y1="0" x2="176" y2="96"/>
      <line x1="184" y1="0" x2="184" y2="96"/>
      <line x1="192" y1="0" x2="192" y2="96"/>
      <line x1="200" y1="0" x2="200" y2="96"/>
      <line x1="208" y1="0" x2="208" y2="96"/>
      <line x1="216" y1="0" x2="216" y2="96"/>
      <line x1="224" y1="0" x2="224" y2="96"/>
      <line x1="232" y1="0" x2="232" y2="96"/>
      <line x1="240" y1="0" x2="240" y2="96"/>
      <line x1="248" y1="0" x2="248" y2="96"/>
      <line x1="256" y1="0" x2="256" y2="96"/>
      <line x1="264" y1="0" x2="264" y2="96"/>
      <line x1="272" y1="0" x2="272" y2="96"/>
      <line x1="280" y1="0" x2="280" y2="96"/>
      <line x1="288" y1="0" x2="288" y2="96"/>
      <line x1="296" y1="0" x2="296" y2="96"/>
      <line x1="304" y1="0" x2="304" y2="96"/>
      <line x1="312" y1="0" x2="312" y2="96"/>
      <line x1="320" y1="0" x2="320" y2="96"/>
      <line x1="328" y1="0" x2="328" y2="96"/>
      <line x1="336" y1="0" x2="336" y2="96"/>
      <line x1="344" y1="0" x2="344" y2="96"/>
      <line x1="352" y1="0" x2="352" y2="96"/>
      <line x1="360" y1="0" x2="360" y2="96"/>
      <line x1="368" y1="0" x2="368" y2="96"/>
      <line x1="376" y1="0" x2="376" y2="96"/>
      <line x1="384" y1="0" x2="384" y2="96"/>
      <line x1="392" y1="0" x2="392" y2="96"/>
      <line x1="400" y1="0" x2="400" y2="96"/>
      <line x1="408" y1="0" x2="408" y2="96"/>
      <line x1="416" y1="0" x2="416" y2="96"/>
      <line x1="424" y1="0" x2="424" y2="96"/>
      <line x1="432" y1="0" x2="432" y2="96"/>
      <line x1="440" y1="0" x2="440" y2="96"/>
      <line x1="448" y1="0" x2="448" y2="96"/>
      <line x1="456" y1="0" x2="456" y2="96"/>
      <line x1="464" y1="0" x2="464" y2="96"/>
      <line x1="472" y1="0" x2="472" y2="96"/>
      <line x1="480" y1="0" x2="480" y2="96"/>
      <line x1="488" y1="0" x2="488" y2="96"/>
      <line x1="496" y1="0" x2="496" y2="96"/>
      <line x1="504" y1="0" x2="504" y2="96"/>
      <line x1="512" y1="0" x2="512" y2="96"/>
      <line x1="520" y1="0" x2="520" y2="96"/>
      <line x1="528" y1="0" x2="528" y2="96"/>
      <line x1="536" y1="0" x2="536" y2="96"/>
      <line x1="544" y1="0" x2="544" y2="96"/>
      <line x1="552" y1="0" x2="552" y2="96"/>
      <line x1="560" y1="0" x2="560" y2="96"/>
      <line x1="568" y1="0" x2="568" y2="96"/>
      <line x1="576" y1="0" x2="576" y2="96"/>
      <line x1="584" y1="0" x2="584" y2="96"/>
      <line x1="592" y1="0" x2="592" y2="96"/>
      <line x1="600" y1="0" x2="600" y2="96"/>
      <line x1="608" y1="0" x2="608" y2="96"/>
      <line x1="616" y1="0" x2="616" y2="96"/>
      <line x1="624" y1="0" x2="624" y2="96"/>
      <line x1="632" y1="0" x2="632" y2="96"/>
      <line x1="640" y1="0" x2="640" y2="96"/>
      <line x1="648" y1="0" x2="648" y2="96"/>
      <line x1="656" y1="0" x2="656" y2="96"/>
      <line x1="0" y1="0" x2="656" y2="0"/>
      <line x1="0" y1="8" x2="656" y2="8"/>
      <line x1="0" y1="16" x2="656" y2="16"/>
      <line x1="0" y1="24" x2="656" y2="24"/>
      <line x1="0" y1="32" x2="656" y2="32"/>
      <line x1="0" y1="40" x2="656" y2="40"/>
      <line x1="0" y1="48" x2="656" y2="48"/>
      <line x1="0" y1="56" x2="656" y2="56"/>
      <line x1="0" y1="64" x2="656" y2="64"/>
      <line x1="0" y1="72" x2="656" y2="72"/>
      <line x1="0" y1="80" x2="656" y2="80"/>
      <line x1="0" y1="88" x2="656" y2="88"/>
      <line x1="0" y1="96" x2="656" y2="96"/>
    </g>
    <g id="outer-border" fill="none" stroke="var(--px-grid)" stroke-width="1.0" shape-rendering="crispEdges">
      <rect x="0" y="0" width="656" height="96"/>
    </g>
  </g>
</svg>
