<?xml version="1.0" encoding="UTF-8" standalone="no"?>
<svg xmlns="http://www.w3.org/2000/svg" version="1.1" width="535.0" height="61.0" viewBox="0 0 535.0 61.0">
  <style>
    :root {
      --px-bg: #ffffff;
      --px-grid: #888888;
      --px-ink: #000000;
    }
    @media (prefers-color-scheme: dark) {
      :root {
        --px-bg: #111111;
        --px-grid: #888888;
        --px-ink: #e6e6e6;
      }
    }
  </style>
  <g transform="translate(0.5,0.5)">
    <g id="bits" fill="var(--px-ink)" stroke="none">
      <rect x="12" y="0" width="6" height="6"/>
      <rect x="18" y="0" width="6" height="6"/>
      <rect x="24" y="0" width="6" height="6"/>
      <rect x="30" y="0" width="6" height="6"/>
      <rect x="6" y="6" width="6" height="6"/>
      <rect x="12" y="6" width="6" height="6"/>
      <rect x="18" y="6" width="6" height="6"/>
      <rect x="24" y="6" width="6" height="6"/>
      <rect x="30" y="6" width="6" height="6"/>
      <rect x="36" y="6" width="6" height="6"/>
      <rect x="0" y="12" width="6" height="6"/>
      <rect x="6" y="12" width="6" height="6"/>
      <rect x="36" y="12" width="6" height="6"/>
      <rect x="42" y="12" width="6" height="6"/>
      <rect x="0" y="18" width="6" height="6"/>
      <rect x="6" y="18" width="6" height="6"/>
      <rect x="36" y="18" width="6" height="6"/>
      <rect x="42" y="18" width="6" height="6"/>
      <rect x="0" y="24" width="6" height="6"/>
      <rect x="6" y="24" width="6" height="6"/>
      <rect x="36" y="24" width="6" height="6"/>
      <rect x="42" y="24" width="6" height="6"/>
      <rect x="0" y="30" width="6" height="6"/>
      <rect x="6" y="30" width="6" height="6"/>
      <rect x="36" y="30" width="6" height="6"/>
      <rect x="42" y="30" width="6" height="6"/>
      <rect x="0" y="36" width="6" height="6"/>
      <rect x="6" y="36" width="6" height="6"/>
      <rect x="36" y="36" width="6" height="6"/>
      <rect x="42" y="36" width="6" height="6"/>
      <rect x="0" y="42" width="6" height="6"/>
      <rect x="6" y="42" width="6" height="6"/>
      <rect x="36" y="42" width="6" height="6"/>
      <rect x="42" y="42" width="6" height="6"/>
      <rect x="6" y="48" width="6" height="6"/>
      <rect x="12" y="48" width="6" height="6"/>
      <rect x="18" y="48" width="6" height="6"/>
      <rect x="24" y="48" width="6" height="6"/>
      <rect x="30" y="48" width="6" height="6"/>
      <rect x="36" y="48" width="6" height="6"/>
      <rect x="12" y="54" width="6" height="6"/>
      <rect x="18" y="54" width="6" height="6"/>
      <rect x="24" y="54" width="6" height="6"/>
      <rect x="30" y="54" width="6" height="6"/>
      <rect x="72" y="0" width="6" height="6"/>
      <rect x="78" y="0" width="6" height="6"/>
      <rect x="66" y="6" width="6" height="6"/>
      <rect x="72" y="6" width="6" height="6"/>
      <rect x="78" y="6" width="6" height="6"/>
      <rect x="60" y="12" width="6" height="6"/>
      <rect x="72" y="12" width="6" height="6"/>
      <rect x="78" y="12" width="6" height="6"/>
      <rect x="72" y="18" width="6" height="6"/>
      <rect x="78" y="18" width="6" height="6"/>
      <rect x="72" y="24" width="6" height="6"/>
      <rect x="78" y="24" width="6" height="6"/>
      <rect x="72" y="30" width="6" height="6"/>
      <rect x="78" y="30" width="6" height="6"/>
      <rect x="72" y="36" width="6" height="6"/>
      <rect x="78" y="36" width="6" height="6"/>
      <rect x="72" y="42" width="6" height="6"/>
      <rect x="78" y="42" width="6" height="6"/>
      <rect x="72" y="48" width="6" height="6"/>
      <rect x="78" y="48" width="6" height="6"/>
      <rect x="66" y="54" width="6" height="6"/>
      <rect x="72" y="54" width="6" height="6"/>
      <rect x="78" y="54" width="6" height="6"/>
      <rect x="84" y="54" width="6" height="6"/>
      <rect x="120" y="0" width="6" height="6"/>
      <rect x="126" y="0" width="6" height="6"/>
      <rect x="132" y="0" width="6" height="6"/>
      <rect x="138" y="0" width="6" height="6"/>
      <rect x="144" y="0" width="6" height="6"/>
      <rect x="114" y="6" width="6" height="6"/>
      <rect x="120" y="6" width="6" height="6"/>
      <rect x="126" y="6" width="6" height="6"/>
      <rect x="132" y="6" width="6" height="6"/>
      <rect x="138" y="6" width="6" height="6"/>
      <rect x="144" y="6" width="6" height="6"/>
      <rect x="150" y="6" width="6" height="6"/>
      <rect x="108" y="12" width="6" height="6"/>
      <rect x="114" y="12" width="6" height="6"/>
      <rect x="144" y="12" width="6" height="6"/>
      <rect x="150" y="12" width="6" height="6"/>
      <rect x="138" y="18" width="6" height="6"/>
      <rect x="144" y="18" width="6" height="6"/>
      <rect x="132" y="24" width="6" height="6"/>
      <rect x="138" y="24" width="6" height="6"/>
      <rect x="126" y="30" width="6" height="6"/>
      <rect x="132" y="30" width="6" height="6"/>
      <rect x="120" y="36" width="6" height="6"/>
      <rect x="126" y="36" width="6" height="6"/>
      <rect x="114" y="42" width="6" height="6"/>
      <rect x="120" y="42" width="6" height="6"/>
      <rect x="108" y="48" width="6" height="6"/>
      <rect x="114" y="48" width="6" height="6"/>
      <rect x="120" y="48" width="6" height="6"/>
      <rect x="126" y="48" width="6" height="6"/>
      <rect x="132" y="48" width="6" height="6"/>
      <rect x="138" y="48" width="6" height="6"/>
      <rect x="144" y="48" width="6" height="6"/>
      <rect x="150" y="48" width="6" height="6"/>
      <rect x="108" y="54" width="6" height="6"/>
      <rect x="114" y="54" width="6" height="6"/>
      <rect x="120" y="54" width="6" height="6"/>
      <rect x="126" y="54" width="6" height="6"/>
      <rect x="132" y="54" width="6" height="6"/>
      <rect x="138" y="54" width="6" height="6"/>
      <rect x="144" y="54" width="6" height="6"/>
      <rect x="150" y="54" width="6" height="6"/>
      <rect x="174" y="0" width="6" height="6"/>
      <rect x="180" y="0" width="6" height="6"/>
      <rect x="186" y="0" width="6" height="6"/>
      <rect x="192" y="0" width="6" height="6"/>
      <rect x="168" y="6" width="6" height="6"/>
      <rect x="174" y="6" width="6" height="6"/>
      <rect x="180" y="6" width="6" height="6"/>
      <rect x="186" y="6" width="6" height="6"/>
      <rect x="192" y="6" width="6" height="6"/>
      <rect x="198" y="6" width="6" height="6"/>
      <rect x="162" y="12" width="6" height="6"/>
      <rect x="168" y="12" width="6" height="6"/>
      <rect x="198" y="12" width="6" height="6"/>
      <rect x="204" y="12" width="6" height="6"/>
      <rect x="198" y="18" width="6" height="6"/>
      <rect x="204" y="18" width="6" height="6"/>
      <rect x="186" y="24" width="6" height="6"/>
      <rect x="192" y="24" width="6" height="6"/>
      <rect x="198" y="24" width="6" height="6"/>
      <rect x="186" y="30" width="6" height="6"/>
      <rect x="192" y="30" width="6" height="6"/>
      <rect x="198" y="30" width="6" height="6"/>
      <rect x="198" y="36" width="6" height="6"/>
      <rect x="204" y="36" width="6" height="6"/>
      <rect x="162" y="42" width="6" height="6"/>
      <rect x="168" y="42" width="6" height="6"/>
      <rect x="198" y="42" width="6" height="6"/>
      <rect x="204" y="42" width="6" height="6"/>
      <rect x="168" y="48" width="6" height="6"/>
      <rect x="174" y="48" width="6" height="6"/>
      <rect x="180" y="48" width="6" height="6"/>
      <rect x="186" y="48" width="6" height="6"/>
      <rect x="192" y="48" width="6" height="6"/>
      <rect x="198" y="48" width="6" height="6"/>
      <rect x="174" y="54" width="6" height="6"/>
      <rect x="180" y="54" width="6" height="6"/>
      <rect x="186" y="54" width="6" height="6"/>
      <rect x="192" y="54" width="6" height="6"/>
      <rect x="246" y="0" width="6" height="6"/>
      <rect x="252" y="0" width="6" height="6"/>
      <rect x="240" y="6" width="6" height="6"/>
      <rect x="246" y="6" width="6" height="6"/>
      <rect x="252" y="6" width="6" height="6"/>
      <rect x="234" y="12" width="6" height="6"/>
      <rect x="240" y="12" width="6" height="6"/>
      <rect x="246" y="12" width="6" height="6"/>
      <rect x="252" y="12" width="6" height="6"/>
      <rect x="228" y="18" width="6" height="6"/>
      <rect x="234" y="18" width="6" height="6"/>
      <rect x="246" y="18" width="6" height="6"/>
      <rect x="252" y="18" width="6" height="6"/>
      <rect x="222" y="24" width="6" height="6"/>
      <rect x="228" y="24" width="6" height="6"/>
      <rect x="246" y="24" width="6" height="6"/>
      <rect x="252" y="24" width="6" height="6"/>
      <rect x="216" y="30" width="6" height="6"/>
      <rect x="222" y="30" width="6" height="6"/>
      <rect x="246" y="30" width="6" height="6"/>
      <rect x="252" y="30" width="6" height="6"/>
      <rect x="216" y="36" width="6" height="6"/>
      <rect x="222" y="36" width="6" height="6"/>
      <rect x="228" y="36" width="6" height="6"/>
      <rect x="234" y="36" width="6" height="6"/>
      <rect x="240" y="36" width="6" height="6"/>
      <rect x="246" y="36" width="6" height="6"/>
      <rect x="252" y="36" width="6" height="6"/>
      <rect x="258" y="36" width="6" height="6"/>
      <rect x="216" y="42" width="6" height="6"/>
      <rect x="222" y="42" width="6" height="6"/>
      <rect x="228" y="42" width="6" height="6"/>
      <rect x="234" y="42" width="6" height="6"/>
      <rect x="240" y="42" width="6" height="6"/>
      <rect x="246" y="42" width="6" height="6"/>
      <rect x="252" y="42" width="6" height="6"/>
      <rect x="258" y="42" width="6" height="6"/>
      <rect x="246" y="48" width="6" height="6"/>
      <rect x="252" y="48" width="6" height="6"/>
      <rect x="246" y="54" width="6" height="6"/>
      <rect x="252" y="54" width="6" height="6"/>
      <rect x="270" y="0" width="6" height="6"/>
      <rect x="276" y="0" width="6" height="6"/>
      <rect x="282" y="0" width="6" height="6"/>
      <rect x="288" y="0" width="6" height="6"/>
      <rect x="294" y="0" width="6" height="6"/>
      <rect x="300" y="0" width="6" height="6"/>
      <rect x="306" y="0" width="6" height="6"/>
      <rect x="312" y="0" width="6" height="6"/>
      <rect x="270" y="6" width="6" height="6"/>
      <rect x="276" y="6" width="6" height="6"/>
      <rect x="282" y="6" width="6" height="6"/>
      <rect x="288" y="6" width="6" height="6"/>
      <rect x="294" y="6" width="6" height="6"/>
      <rect x="300" y="6" width="6" height="6"/>
      <rect x="306" y="6" width="6" height="6"/>
      <rect x="312" y="6" width="6" height="6"/>
      <rect x="270" y="12" width="6" height="6"/>
      <rect x="276" y="12" width="6" height="6"/>
      <rect x="270" y="18" width="6" height="6"/>
      <rect x="276" y="18" width="6" height="6"/>
      <rect x="270" y="24" width="6" height="6"/>
      <rect x="276" y="24" width="6" height="6"/>
      <rect x="282" y="24" width="6" height="6"/>
      <rect x="288" y="24" width="6" height="6"/>
      <rect x="294" y="24" width="6" height="6"/>
      <rect x="300" y="24" width="6" height="6"/>
      <rect x="270" y="30" width="6" height="6"/>
      <rect x="276" y="30" width="6" height="6"/>
      <rect x="282" y="30" width="6" height="6"/>
      <rect x="288" y="30" width="6" height="6"/>
      <rect x="294" y="30" width="6" height="6"/>
      <rect x="300" y="30" width="6" height="6"/>
      <rect x="306" y="30" width="6" height="6"/>
      <rect x="306" y="36" width="6" height="6"/>
      <rect x="312" y="36" width="6" height="6"/>
      <rect x="270" y="42" width="6" height="6"/>
      <rect x="276" y="42" width="6" height="6"/>
      <rect x="306" y="42" width="6" height="6"/>
      <rect x="312" y="42" width="6" height="6"/>
      <rect x="276" y="48" width="6" height="6"/>
      <rect x="282" y="48" width="6" height="6"/>
      <rect x="288" y="48" width="6" height="6"/>
      <rect x="294" y="48" width="6" height="6"/>
      <rect x="300" y="48" width="6" height="6"/>
      <rect x="306" y="48" width="6" height="6"/>
      <rect x="282" y="54" width="6" height="6"/>
      <rect x="288" y="54" width="6" height="6"/>
      <rect x="294" y="54" width="6" height="6"/>
      <rect x="300" y="54" width="6" height="6"/>
      <rect x="336" y="0" width="6" height="6"/>
      <rect x="342" y="0" width="6" height="6"/>
      <rect x="348" y="0" width="6" height="6"/>
      <rect x="354" y="0" width="6" height="6"/>
      <rect x="360" y="0" width="6" height="6"/>
      <rect x="330" y="6" width="6" height="6"/>
      <rect x="336" y="6" width="6" height="6"/>
      <rect x="342" y="6" width="6" height="6"/>
      <rect x="348" y="6" width="6" height="6"/>
      <rect x="354" y="6" width="6" height="6"/>
      <rect x="324" y="12" width="6" height="6"/>
      <rect x="330" y="12" width="6" height="6"/>
      <rect x="324" y="18" width="6" height="6"/>
      <rect x="330" y="18" width="6" height="6"/>
      <rect x="324" y="24" width="6" height="6"/>
      <rect x="330" y="24" width="6" height="6"/>
      <rect x="336" y="24" width="6" height="6"/>
      <rect x="342" y="24" width="6" height="6"/>
      <rect x="348" y="24" width="6" height="6"/>
      <rect x="354" y="24" width="6" height="6"/>
      <rect x="324" y="30" width="6" height="6"/>
      <rect x="330" y="30" width="6" height="6"/>
      <rect x="336" y="30" width="6" height="6"/>
      <rect x="342" y="30" width="6" height="6"/>
      <rect x="348" y="30" width="6" height="6"/>
      <rect x="354" y="30" width="6" height="6"/>
      <rect x="360" y="30" width="6" height="6"/>
      <rect x="324" y="36" width="6" height="6"/>
      <rect x="330" y="36" width="6" height="6"/>
      <rect x="360" y="36" width="6" height="6"/>
      <rect x="366" y="36" width="6" height="6"/>
      <rect x="324" y="42" width="6" height="6"/>
      <rect x="330" y="42" width="6" height="6"/>
      <rect x="360" y="42" width="6" height="6"/>
      <rect x="366" y="42" width="6" height="6"/>
      <rect x="330" y="48" width="6" height="6"/>
      <rect x="336" y="48" width="6" height="6"/>
      <rect x="342" y="48" width="6" height="6"/>
      <rect x="348" y="48" width="6" height="6"/>
      <rect x="354" y="48" width="6" height="6"/>
      <rect x="360" y="48" width="6" height="6"/>
      <rect x="336" y="54" width="6" height="6"/>
      <rect x="342" y="54" width="6" height="6"/>
      <rect x="348" y="54" width="6" height="6"/>
      <rect x="354" y="54" width="6" height="6"/>
      <rect x="378" y="0" width="6" height="6"/>
      <rect x="384" y="0" width="6" height="6"/>
      <rect x="390" y="0" width="6" height="6"/>
      <rect x="396" y="0" width="6" height="6"/>
      <rect x="402" y="0" width="6" height="6"/>
      <rect x="408" y="0" width="6" height="6"/>
      <rect x="414" y="0" width="6" height="6"/>
      <rect x="420" y="0" width="6" height="6"/>
      <rect x="378" y="6" width="6" height="6"/>
      <rect x="384" y="6" width="6" height="6"/>
      <rect x="390" y="6" width="6" height="6"/>
      <rect x="396" y="6" width="6" height="6"/>
      <rect x="402" y="6" width="6" height="6"/>
      <rect x="408" y="6" width="6" height="6"/>
      <rect x="414" y="6" width="6" height="6"/>
      <rect x="420" y="6" width="6" height="6"/>
      <rect x="414" y="12" width="6" height="6"/>
      <rect x="420" y="12" width="6" height="6"/>
      <rect x="408" y="18" width="6" height="6"/>
      <rect x="414" y="18" width="6" height="6"/>
      <rect x="402" y="24" width="6" height="6"/>
      <rect x="408" y="24" width="6" height="6"/>
      <rect x="396" y="30" width="6" height="6"/>
      <rect x="402" y="30" width="6" height="6"/>
      <rect x="390" y="36" width="6" height="6"/>
      <rect x="396" y="36" width="6" height="6"/>
      <rect x="384" y="42" width="6" height="6"/>
      <rect x="390" y="42" width="6" height="6"/>
      <rect x="384" y="48" width="6" height="6"/>
      <rect x="390" y="48" width="6" height="6"/>
      <rect x="384" y="54" width="6" height="6"/>
      <rect x="390" y="54" width="6" height="6"/>
      <rect x="444" y="0" width="6" height="6"/>
      <rect x="450" y="0" width="6" height="6"/>
      <rect x="456" y="0" width="6" height="6"/>
      <rect x="462" y="0" width="6" height="6"/>
      <rect x="438" y="6" width="6" height="6"/>
      <rect x="444" y="6" width="6" height="6"/>
      <rect x="450" y="6" width="6" height="6"/>
      <rect x="456" y="6" width="6" height="6"/>
      <rect x="462" y="6" width="6" height="6"/>
      <rect x="468" y="6" width="6" height="6"/>
      <rect x="432" y="12" width="6" height="6"/>
      <rect x="438" y="12" width="6" height="6"/>
      <rect x="468" y="12" width="6" height="6"/>
      <rect x="474" y="12" width="6" height="6"/>
      <rect x="432" y="18" width="6" height="6"/>
      <rect x="438" y="18" width="6" height="6"/>
      <rect x="468" y="18" width="6" height="6"/>
      <rect x="474" y="18" width="6" height="6"/>
      <rect x="438" y="24" width="6" height="6"/>
      <rect x="444" y="24" width="6" height="6"/>
      <rect x="450" y="24" width="6" height="6"/>
      <rect x="456" y="24" width="6" height="6"/>
      <rect x="462" y="24" width="6" height="6"/>
      <rect x="468" y="24" width="6" height="6"/>
      <rect x="438" y="30" width="6" height="6"/>
      <rect x="444" y="30" width="6" height="6"/>
      <rect x="450" y="30" width="6" height="6"/>
      <rect x="456" y="30" width="6" height="6"/>
      <rect x="462" y="30" width="6" height="6"/>
      <rect x="468" y="30" width="6" height="6"/>
      <rect x="432" y="36" width="6" height="6"/>
      <rect x="438" y="36" width="6" height="6"/>
      <rect x="468" y="36" width="6" height="6"/>
      <rect x="474" y="36" width="6" height="6"/>
      <rect x="432" y="42" width="6" height="6"/>
      <rect x="438" y="42" width="6" height="6"/>
      <rect x="468" y="42" width="6" height="6"/>
      <rect x="474" y="42" width="6" height="6"/>
      <rect x="438" y="48" width="6" height="6"/>
      <rect x="444" y="48" width="6" height="6"/>
      <rect x="450" y="48" width="6" height="6"/>
      <rect x="456" y="48" width="6" height="6"/>
      <rect x="462" y="48" width="6" height="6"/>
      <rect x="468" y="48" width="6" height="6"/>
      <rect x="444" y="54" width="6" height="6"/>
      <rect x="450" y="54" width="6" height="6"/>
      <rect x="456" y="54" width="6" height="6"/>
      <rect x="462" y="54" width="6" height="6"/>
      <rect x="498" y="0" width="6" height="6"/>
      <rect x="504" y="0" width="6" height="6"/>
      <rect x="510" y="0" width="6" height="6"/>
      <rect x="516" y="0" width="6" height="6"/>
      <rect x="492" y="6" width="6" height="6"/>
      <rect x="498" y="6" width="6" height="6"/>
      <rect x="504" y="6" width="6" height="6"/>
      <rect x="510" y="6" width="6" height="6"/>
      <rect x="516" y="6" width="6" height="6"/>
      <rect x="522" y="6" width="6" height="6"/>
      <rect x="486" y="12" width="6" height="6"/>
      <rect x="492" y="12" width="6" height="6"/>
      <rect x="522" y="12" width="6" height="6"/>
      <rect x="528" y="12" width="6" height="6"/>
      <rect x="486" y="18" width="6" height="6"/>
      <rect x="492" y="18" width="6" height="6"/>
      <rect x="522" y="18" width="6" height="6"/>
      <rect x="528" y="18" width="6" height="6"/>
      <rect x="492" y="24" width="6" height="6"/>
      <rect x="498" y="24" width="6" height="6"/>
      <rect x="504" y="24" width="6" height="6"/>
      <rect x="510" y="24" width="6" height="6"/>
      <rect x="516" y="24" width="6" height="6"/>
      <rect x="522" y="24" width="6" height="6"/>
      <rect x="528" y="24" width="6" height="6"/>
      <rect x="498" y="30" width="6" height="6"/>
      <rect x="504" y="30" width="6" height="6"/>
      <rect x="510" y="30" width="6" height="6"/>
      <rect x="516" y="30" width="6" height="6"/>
      <rect x="522" y="30" width="6" height="6"/>
      <rect x="528" y="30" width="6" height="6"/>
      <rect x="522" y="36" width="6" height="6"/>
      <rect x="528" y="36" width="6" height="6"/>
      <rect x="522" y="42" width="6" height="6"/>
      <rect x="528" y="42" width="6" height="6"/>
      <rect x="498" y="48" width="6" height="6"/>
      <rect x="504" y="48" width="6" height="6"/>
      <rect x="510" y="48" width="6" height="6"/>
      <rect x="516" y="48" width="6" height="6"/>
      <rect x="522" y="48" width="6" height="6"/>
      <rect x="492" y="54" width="6" height="6"/>
      <rect x="498" y="54" width="6" height="6"/>
      <rect x="504" y="54" width="6" height="6"/>
      <rect x="510" y="54" width="6" height="6"/>
      <rect x="516" y="54" width="6" height="6"/>
    </g>
    <g id="grid" fill="none" stroke="var(--px-grid)" stroke-width="1.0" shape-rendering="crispEdges">
      <line x1="0" y1="0" x2="0" y2="60"/>
      <line x1="6" y1="0" x2="6" y2="60"/>
      <line x1="12" y1="0" x2="12" y2="60"/>
      <line x1="18" y1="0" x2="18" y2="60"/>
      <line x1="24" y1="0" x2="24" y2="60"/>
      <line x1="30" y1="0" x2="30" y2="60"/>
      <line x1="36" y1="0" x2="36" y2="60"/>
      <line x1="42" y1="0" x2="42" y2="60"/>
      <line x1="48" y1="0" x2="48" y2="60"/>
      <line x1="54" y1="0" x2="54" y2="60"/>
      <line x1="60" y1="0" x2="60" y2="60"/>
      <line x1="66" y1="0" x2="66" y2="60"/>
      <line x1="72" y1="0" x2="72" y2="60"/>
      <line x1="78" y1="0" x2="78" y2="60"/>
      <line x1="84" y1="0" x2="84" y2="60"/>
      <line x1="90" y1="0" x2="90" y2="60"/>
      <line x1="96" y1="0" x2="96" y2="60"/>
      <line x1="102" y1="0" x2="102" y2="60"/>
      <line x1="108" y1="0" x2="108" y2="60"/>
      <line x1="114" y1="0" x2="114" y2="60"/>
      <line x1="120" y1="0" x2="120" y2="60"/>
      <line x1="126" y1="0" x2="126" y2="60"/>
      <line x1="132" y1="0" x2="132" y2="60"/>
      <line x1="138" y1="0" x2="138" y2="60"/>
      <line x1="144" y1="0" x2="144" y2="60"/>
      <line x1="150" y1="0" x2="150" y2="60"/>
      <line x1="156" y1="0" x2="156" y2="60"/>
      <line x1="162" y1="0" x2="162" y2="60"/>
      <line x1="168" y1="0" x2="168" y2="60"/>
      <line x1="174" y1="0" x2="174" y2="60"/>
      <line x1="180" y1="0" x2="180" y2="60"/>
      <line x1="186" y1="0" x2="186" y2="60"/>
      <line x1="192" y1="0" x2="192" y2="60"/>
      <line x1="198" y1="0" x2="198" y2="60"/>
      <line x1="204" y1="0" x2="204" y2="60"/>
      <line x1="210" y1="0" x2="210" y2="60"/>
      <line x1="216" y1="0" x2="216" y2="60"/>
      <line x1="222" y1="0" x2="222" y2="60"/>
      <line x1="228" y1="0" x2="228" y2="60"/>
      <line x1="234" y1="0" x2="234" y2="60"/>
      <line x1="240" y1="0" x2="240" y2="60"/>
      <line x1="246" y1="0" x2="246" y2="60"/>
      <line x1="252" y1="0" x2="252" y2="60"/>
      <line x1="258" y1="0" x2="258" y2="60"/>
      <line x1="264" y1="0" x2="264" y2="60"/>
      <line x1="270" y1="0" x2="270" y2="60"/>
      <line x1="276" y1="0" x2="276" y2="60"/>
      <line x1="282" y1="0" x2="282" y2="60"/>
      <line x1="288" y1="0" x2="288" y2="60"/>
      <line x1="294" y1="0" x2="294" y2="60"/>
      <line x1="300" y1="0" x2="300" y2="60"/>
      <line x1="306" y1="0" x2="306" y2="60"/>
      <line x1="312" y1="0" x2="312" y2="60"/>
      <line x1="318" y1="0" x2="318" y2="60"/>
      <line x1="324" y1="0" x2="324" y2="60"/>
      <line x1="330" y1="0" x2="330" y2="60"/>
      <line x1="336" y1="0" x2="336" y2="60"/>
      <line x1="342" y1="0" x2="342" y2="60"/>
      <line x1="348" y1="0" x2="348" y2="60"/>
      <line x1="354" y1="0" x2="354" y2="60"/>
      <line x1="360" y1="0" x2="360" y2="60"/>
      <line x1="366" y1="0" x2="366" y2="60"/>
      <line x1="372" y1="0" x2="372" y2="60"/>
      <line x1="378" y1="0" x2="378" y2="60"/>
      <line x1="384" y1="0" x2="384" y2="60"/>
      <line x1="390" y1="0" x2="390" y2="60"/>
      <line x1="396" y1="0" x2="396" y2="60"/>
      <line x1="402" y1="0" x2="402" y2="60"/>
      <line x1="408" y1="0" x2="408" y2="60"/>
      <line x1="414" y1="0" x2="414" y2="60"/>
      <line x1="420" y1="0" x2="420" y2="60"/>
      <line x1="426" y1="0" x2="426" y2="60"/>
      <line x1="432" y1="0" x2="432" y2="60"/>
      <line x1="438" y1="0" x2="438" y2="60"/>
      <line x1="444" y1="0" x2="444" y2="60"/>
      <line x1="450" y1="0" x2="450" y2="60"/>
      <line x1="456" y1="0" x2="456" y2="60"/>
      <line x1="462" y1="0" x2="462" y2="60"/>
      <line x1="468" y1="0" x2="468" y2="60"/>
      <line x1="474" y1="0" x2="474" y2="60"/>
      <line x1="480" y1="0" x2="480" y2="60"/>
      <line x1="486" y1="0" x2="486" y2="60"/>
      <line x1="492" y1="0" x2="492" y2="60"/>
      <line x1="498" y1="0" x2="498" y2="60"/>
      <line x1="504" y1="0" x2="504" y2="60"/>
      <line x1="510" y1="0" x2="510" y2="60"/>
      <line x1="516" y1="0" x2="516" y2="60"/>
      <line x1="522" y1="0" x2="522" y2="60"/>
      <line x1="528" y1="0" x2="528" y2="60"/>
      <line x1="534" y1="0" x2="534" y2="60"/>
      <line x1="0" y1="0" x2="534" y2="0"/>
      <line x1="0" y1="6" x2="534" y2="6"/>
      <line x1="0" y1="12" x2="534" y2="12"/>
      <line x1="0" y1="18" x2="534" y2="18"/>
      <line x1="0" y1="24" x2="534" y2="24"/>
      <line x1="0" y1="30" x2="534" y2="30"/>
      <line x1="0" y1="36" x2="534" y2="36"/>
      <line x1="0" y1="42" x2="534" y2="42"/>
      <line x1="0" y1="48" x2="534" y2="48"/>
      <line x1="0" y1="54" x2="534" y2="54"/>
      <line x1="0" y1="60" x2="534" y2="60"/>
    </g>
    <g id="outer-border" fill="none" stroke="var(--px-grid)" stroke-width="1.0" shape-rendering="crispEdges">
      <rect x="0" y="0" width="534" height="60"/>
    </g>
  </g>
</svg>
