<?xml version="1.0" encoding="UTF-8" standalone="no"?>
<svg xmlns="http://www.w3.org/2000/svg" version="1.1" width="260.0" height="817.0" viewBox="0 0 260.0 817.0">
  <style>
    :root {
      --px-bg: #ffffff;
      --px-grid: #888888;
      --px-ink: #000000;
      --px-text: #000000;
    }
    @media (prefers-color-scheme: dark) {
      :root {
        --px-bg: #000000;
        --px-grid: #888888;
        --px-ink: #e6e6e6;
        --px-text: #e6e6e6;
      }
    }
  </style>
  <g transform="translate(0.5,0.5)">
    <g id="bits" fill="var(--px-ink)" stroke="none">
      <rect x="0" y="0" width="16" height="16"/>
      <rect x="16" y="0" width="16" height="16"/>
      <rect x="32" y="0" width="16" height="16"/>
      <rect x="48" y="0" width="16" height="16"/>
      <rect x="0" y="16" width="16" height="16"/>
      <rect x="0" y="32" width="16" height="16"/>
      <rect x="16" y="32" width="16" height="16"/>
      <rect x="32" y="32" width="16" height="16"/>
      <rect x="48" y="32" width="16" height="16"/>
      <rect x="0" y="48" width="16" height="16"/>
      <rect x="0" y="64" width="16" height="16"/>
      <rect x="16" y="64" width="16" height="16"/>
      <rect x="32" y="64" width="16" height="16"/>
      <rect x="48" y="64" width="16" height="16"/>
      <rect x="0" y="80" width="16" height="16"/>
      <rect x="0" y="96" width="16" height="16"/>
      <rect x="0" y="112" width="16" height="16"/>
      <rect x="0" y="128" width="16" height="16"/>
      <rect x="16" y="128" width="16" height="16"/>
      <rect x="32" y="128" width="16" height="16"/>
      <rect x="48" y="128" width="16" height="16"/>
      <rect x="16" y="144" width="16" height="16"/>
      <rect x="48" y="144" width="16" height="16"/>
      <rect x="16" y="160" width="16" height="16"/>
      <rect x="32" y="160" width="16" height="16"/>
      <rect x="48" y="160" width="16" height="16"/>
      <rect x="16" y="176" width="16" height="16"/>
      <rect x="48" y="176" width="16" height="16"/>
      <rect x="0" y="192" width="16" height="16"/>
      <rect x="16" y="192" width="16" height="16"/>
      <rect x="32" y="192" width="16" height="16"/>
      <rect x="48" y="192" width="16" height="16"/>
      <rect x="16" y="208" width="16" height="16"/>
      <rect x="48" y="208" width="16" height="16"/>
      <rect x="16" y="224" width="16" height="16"/>
      <rect x="48" y="224" width="16" height="16"/>
      <rect x="16" y="240" width="16" height="16"/>
      <rect x="48" y="240" width="16" height="16"/>
      <rect x="0" y="256" width="16" height="16"/>
      <rect x="16" y="256" width="16" height="16"/>
      <rect x="32" y="256" width="16" height="16"/>
      <rect x="48" y="256" width="16" height="16"/>
      <rect x="0" y="272" width="16" height="16"/>
      <rect x="0" y="288" width="16" height="16"/>
      <rect x="16" y="288" width="16" height="16"/>
      <rect x="32" y="288" width="16" height="16"/>
      <rect x="48" y="288" width="16" height="16"/>
      <rect x="48" y="304" width="16" height="16"/>
      <rect x="0" y="320" width="16" height="16"/>
      <rect x="16" y="320" width="16" height="16"/>
      <rect x="32" y="320" width="16" height="16"/>
      <rect x="48" y="320" width="16" height="16"/>
      <rect x="0" y="336" width="16" height="16"/>
      <rect x="0" y="352" width="16" height="16"/>
      <rect x="16" y="352" width="16" height="16"/>
      <rect x="32" y="352" width="16" height="16"/>
      <rect x="48" y="352" width="16" height="16"/>
      <rect x="0" y="368" width="16" height="16"/>
      <rect x="48" y="368" width="16" height="16"/>
      <rect x="0" y="384" width="16" height="16"/>
      <rect x="16" y="384" width="16" height="16"/>
      <rect x="32" y="384" width="16" height="16"/>
      <rect x="48" y="384" width="16" height="16"/>
      <rect x="0" y="400" width="16" height="16"/>
      <rect x="48" y="400" width="16" height="16"/>
      <rect x="0" y="416" width="16" height="16"/>
      <rect x="16" y="416" width="16" height="16"/>
      <rect x="32" y="416" width="16" height="16"/>
      <rect x="48" y="416" width="16" height="16"/>
      <rect x="48" y="432" width="16" height="16"/>
      <rect x="0" y="448" width="16" height="16"/>
      <rect x="16" y="448" width="16" height="16"/>
      <rect x="32" y="448" width="16" height="16"/>
      <rect x="48" y="448" width="16" height="16"/>
      <rect x="48" y="464" width="16" height="16"/>
      <rect x="0" y="480" width="16" height="16"/>
      <rect x="16" y="480" width="16" height="16"/>
      <rect x="32" y="480" width="16" height="16"/>
      <rect x="48" y="480" width="16" height="16"/>
      <rect x="0" y="496" width="16" height="16"/>
      <rect x="48" y="496" width="16" height="16"/>
      <rect x="0" y="512" width="16" height="16"/>
      <rect x="16" y="512" width="16" height="16"/>
      <rect x="32" y="512" width="16" height="16"/>
      <rect x="48" y="512" width="16" height="16"/>
      <rect x="0" y="528" width="16" height="16"/>
      <rect x="48" y="528" width="16" height="16"/>
      <rect x="0" y="544" width="16" height="16"/>
      <rect x="48" y="544" width="16" height="16"/>
      <rect x="0" y="560" width="16" height="16"/>
      <rect x="48" y="560" width="16" height="16"/>
      <rect x="0" y="576" width="16" height="16"/>
      <rect x="16" y="576" width="16" height="16"/>
      <rect x="32" y="576" width="16" height="16"/>
      <rect x="48" y="576" width="16" height="16"/>
      <rect x="48" y="592" width="16" height="16"/>
      <rect x="48" y="608" width="16" height="16"/>
      <rect x="48" y="624" width="16" height="16"/>
      <rect x="48" y="640" width="16" height="16"/>
      <rect x="16" y="656" width="16" height="16"/>
      <rect x="32" y="656" width="16" height="16"/>
      <rect x="32" y="672" width="16" height="16"/>
      <rect x="32" y="688" width="16" height="16"/>
      <rect x="32" y="704" width="16" height="16"/>
      <rect x="16" y="720" width="16" height="16"/>
      <rect x="32" y="720" width="16" height="16"/>
      <rect x="48" y="720" width="16" height="16"/>
      <rect x="0" y="736" width="16" height="16"/>
      <rect x="32" y="736" width="16" height="16"/>
      <rect x="0" y="752" width="16" height="16"/>
      <rect x="32" y="752" width="16" height="16"/>
      <rect x="0" y="768" width="16" height="16"/>
      <rect x="16" y="768" width="16" height="16"/>
      <rect x="32" y="768" width="16" height="16"/>
      <rect x="48" y="768" width="16" height="16"/>
      <rect x="32" y="784" width="16" height="16"/>
      <rect x="32" y="800" width="16" height="16"/>
    </g>
    <g id="grid" fill="none" stroke="var(--px-grid)" stroke-width="1.0" shape-rendering="crispEdges">
      <line x1="0" y1="0" x2="0" y2="816"/>
      <line x1="16" y1="0" x2="16" y2="816"/>
      <line x1="32" y1="0" x2="32" y2="816"/>
      <line x1="48" y1="0" x2="48" y2="816"/>
      <line x1="64" y1="0" x2="64" y2="816"/>
      <line x1="80" y1="0" x2="80" y2="816"/>
      <line x1="96" y1="0" x2="96" y2="816"/>
      <line x1="112" y1="0" x2="112" y2="816"/>
      <line x1="128" y1="0" x2="128" y2="816"/>
      <line x1="0" y1="0" x2="128" y2="0"/>
      <line x1="0" y1="16" x2="128" y2="16"/>
      <line x1="0" y1="32" x2="128" y2="32"/>
      <line x1="0" y1="48" x2="128" y2="48"/>
      <line x1="0" y1="64" x2="128" y2="64"/>
      <line x1="0" y1="80" x2="128" y2="80"/>
      <line x1="0" y1="96" x2="128" y2="96"/>
      <line x1="0" y1="112" x2="128" y2="112"/>
      <line x1="0" y1="128" x2="128" y2="128"/>
      <line x1="0" y1="144" x2="128" y2="144"/>
      <line x1="0" y1="160" x2="128" y2="160"/>
      <line x1="0" y1="176" x2="128" y2="176"/>
      <line x1="0" y1="192" x2="128" y2="192"/>
      <line x1="0" y1="208" x2="128" y2="208"/>
      <line x1="0" y1="224" x2="128" y2="224"/>
      <line x1="0" y1="240" x2="128" y2="240"/>
      <line x1="0" y1="256" x2="128" y2="256"/>
      <line x1="0" y1="272" x2="128" y2="272"/>
      <line x1="0" y1="288" x2="128" y2="288"/>
      <line x1="0" y1="304" x2="128" y2="304"/>
      <line x1="0" y1="320" x2="128" y2="320"/>
      <line x1="0" y1="336" x2="128" y2="336"/>
      <line x1="0" y1="352" x2="128" y2="352"/>
      <line x1="0" y1="368" x2="128" y2="368"/>
      <line x1="0" y1="384" x2="128" y2="384"/>
      <line x1="0" y1="400" x2="128" y2="400"/>
      <line x1="0" y1="416" x2="128" y2="416"/>
      <line x1="0" y1="432" x2="128" y2="432"/>
      <line x1="0" y1="448" x2="128" y2="448"/>
      <line x1="0" y1="464" x2="128" y2="464"/>
      <line x1="0" y1="480" x2="128" y2="480"/>
      <line x1="0" y1="496" x2="128" y2="496"/>
      <line x1="0" y1="512" x2="128" y2="512"/>
      <line x1="0" y1="528" x2="128" y2="528"/>
      <line x1="0" y1="544" x2="128" y2="544"/>
      <line x1="0" y1="560" x2="128" y2="560"/>
      <line x1="0" y1="576" x2="128" y2="576"/>
      <line x1="0" y1="592" x2="128" y2="592"/>
      <line x1="0" y1="608" x2="128" y2="608"/>
      <line x1="0" y1="624" x2="128" y2="624"/>
      <line x1="0" y1="640" x2="128" y2="640"/>
      <line x1="0" y1="656" x2="128" y2="656"/>
      <line x1="0" y1="672" x2="128" y2="672"/>
      <line x1="0" y1="688" x2="128" y2="688"/>
      <line x1="0" y1="704" x2="128" y2="704"/>
      <line x1="0" y1="720" x2="128" y2="720"/>
      <line x1="0" y1="736" x2="128" y2="736"/>
      <line x1="0" y1="752" x2="128" y2="752"/>
      <line x1="0" y1="768" x2="128" y2="768"/>
      <line x1="0" y1="784" x2="128" y2="784"/>
      <line x1="0" y1="800" x2="128" y2="800"/>
      <line x1="0" y1="816" x2="128" y2="816"/>
    </g>
    <g id="outer-border" fill="none" stroke="var(--px-grid)" stroke-width="1.0" shape-rendering="crispEdges">
      <rect x="0" y="0" width="128" height="816"/>
    </g>
    <g id="labels" fill="var(--px-text)" stroke="none" font-family="monospace" font-size="12">
      <text x="138" y="8.0" dominant-baseline="middle">11110000 0xF0 E</text>
      <text x="138" y="24.0" dominant-baseline="middle">10000000 0x80</text>
      <text x="138" y="40.0" dominant-baseline="middle">11110000 0xF0 F</text>
      <text x="138" y="56.0" dominant-baseline="middle">10000000 0x80</text>
      <text x="138" y="72.0" dominant-baseline="middle">11110000 0xF0 C</text>
      <text x="138" y="88.0" dominant-baseline="middle">10000000 0x80</text>
      <text x="138" y="104.0" dominant-baseline="middle">10000000 0x80</text>
      <text x="138" y="120.0" dominant-baseline="middle">10000000 0x80</text>
      <text x="138" y="136.0" dominant-baseline="middle">11110000 0xF0 B</text>
      <text x="138" y="152.0" dominant-baseline="middle">01010000 0x50</text>
      <text x="138" y="168.0" dominant-baseline="middle">01110000 0x70</text>
      <text x="138" y="184.0" dominant-baseline="middle">01010000 0x50</text>
      <text x="138" y="200.0" dominant-baseline="middle">11110000 0xF0 D</text>
      <text x="138" y="216.0" dominant-baseline="middle">01010000 0x50</text>
      <text x="138" y="232.0" dominant-baseline="middle">01010000 0x50</text>
      <text x="138" y="248.0" dominant-baseline="middle">01010000 0x50</text>
      <text x="138" y="264.0" dominant-baseline="middle">11110000 0xF0 5</text>
      <text x="138" y="280.0" dominant-baseline="middle">10000000 0x80</text>
      <text x="138" y="296.0" dominant-baseline="middle">11110000 0xF0 2</text>
      <text x="138" y="312.0" dominant-baseline="middle">00010000 0x10</text>
      <text x="138" y="328.0" dominant-baseline="middle">11110000 0xF0 6</text>
      <text x="138" y="344.0" dominant-baseline="middle">10000000 0x80</text>
      <text x="138" y="360.0" dominant-baseline="middle">11110000 0xF0 8</text>
      <text x="138" y="376.0" dominant-baseline="middle">10010000 0x90</text>
      <text x="138" y="392.0" dominant-baseline="middle">11110000 0xF0 9</text>
      <text x="138" y="408.0" dominant-baseline="middle">10010000 0x90</text>
      <text x="138" y="424.0" dominant-baseline="middle">11110000 0xF0 3</text>
      <text x="138" y="440.0" dominant-baseline="middle">00010000 0x10</text>
      <text x="138" y="456.0" dominant-baseline="middle">11110000 0xF0</text>
      <text x="138" y="472.0" dominant-baseline="middle">00010000 0x10</text>
      <text x="138" y="488.0" dominant-baseline="middle">11110000 0xF0 A</text>
      <text x="138" y="504.0" dominant-baseline="middle">10010000 0x90</text>
      <text x="138" y="520.0" dominant-baseline="middle">11110000 0xF0 0</text>
      <text x="138" y="536.0" dominant-baseline="middle">10010000 0x90</text>
      <text x="138" y="552.0" dominant-baseline="middle">10010000 0x90</text>
      <text x="138" y="568.0" dominant-baseline="middle">10010000 0x90</text>
      <text x="138" y="584.0" dominant-baseline="middle">11110000 0xF0 7</text>
      <text x="138" y="600.0" dominant-baseline="middle">00010000 0x10</text>
      <text x="138" y="616.0" dominant-baseline="middle">00010000 0x10</text>
      <text x="138" y="632.0" dominant-baseline="middle">00010000 0x10</text>
      <text x="138" y="648.0" dominant-baseline="middle">00010000 0x10</text>
      <text x="138" y="664.0" dominant-baseline="middle">01100000 0x60 1</text>
      <text x="138" y="680.0" dominant-baseline="middle">00100000 0x20</text>
      <text x="138" y="696.0" dominant-baseline="middle">00100000 0x20</text>
      <text x="138" y="712.0" dominant-baseline="middle">00100000 0x20</text>
      <text x="138" y="728.0" dominant-baseline="middle">01110000 0x70</text>
      <text x="138" y="744.0" dominant-baseline="middle">10100000 0xA0 4</text>
      <text x="138" y="760.0" dominant-baseline="middle">10100000 0xA0</text>
      <text x="138" y="776.0" dominant-baseline="middle">11110000 0xF0</text>
      <text x="138" y="792.0" dominant-baseline="middle">00100000 0x20</text>
      <text x="138" y="808.0" dominant-baseline="middle">00100000 0x20</text>
    </g>
  </g>
</svg>
